<?xml version="1.0" encoding="utf-8"?>
<!-- Generator: Adobe Illustrator 18.0.0, SVG Export Plug-In . SVG Version: 6.00 Build 0)  -->
<!DOCTYPE svg PUBLIC "-//W3C//DTD SVG 1.1//EN" "http://www.w3.org/Graphics/SVG/1.1/DTD/svg11.dtd">
<svg version="1.1" xmlns="http://www.w3.org/2000/svg" xmlns:xlink="http://www.w3.org/1999/xlink" x="0px" y="0px"
	 viewBox="0 0 30 30" enable-background="new 0 0 30 30" xml:space="preserve">
<g id="Background_xA0_Image_1_">
</g>
<g id="Row_1_1_">
	<g>
		<path d="M28,11.3C28,11.2,28,11.2,28,11.3L28,11.3c-0.1-0.9-2.6-1.6-5.7-1.6c-3.1,0-5.7,0.7-5.7,1.6h0v0c0,0,0,0.1,0,0.1v0.9
			c0,0,0,0,0,0c0,0.9,2.6,1.6,5.7,1.6c3.2,0,5.7-0.7,5.7-1.6c0,0,0,0,0,0V11.3z"/>
		<path d="M13.6,13.1C13.6,13.1,13.6,13.1,13.6,13.1c0-1.2-3-2.1-6.8-2.1C3,11,0,11.9,0,13c0,0,0,0,0,0h0v1.2h0
			c0,1.1,3.1,2.1,6.8,2.1c3.7,0,6.8-0.9,6.8-2.1h0L13.6,13.1L13.6,13.1z"/>
		<path d="M29.1,18.6C29.1,18.6,29.1,18.5,29.1,18.6c-0.1-1.8-4-3.1-8.9-3.1c-4.8,0-8.7,1.4-8.9,3h0c0,0,0,0.1,0,0.1v1.4h0
			c0.1,1.7,4,3,8.9,3c4.8,0,8.7-1.4,8.9-3h0c0,0,0-0.1,0-0.1V18.6z"/>
		<path d="M16.3,8.1c0-0.6-2.2-1.1-4.9-1.1C8.8,7,6.6,7.5,6.6,8.1h0v0.6h0c0.1,0.6,2.2,1.1,4.9,1.1c2.6,0,4.8-0.5,4.9-1.1h0
			L16.3,8.1L16.3,8.1z"/>
		<path d="M28,12.1v-0.9c0,0.9-2.6,1.6-5.7,1.6c-3.1,0-5.7-0.7-5.7-1.6v0.9c0,0,0,0,0,0c0,0.9,2.6,1.6,5.7,1.6
			C25.5,13.8,28.1,13.1,28,12.1C28.1,12.2,28,12.2,28,12.1z"/>
		<path d="M13.6,13.1c0,1.1-3.1,2.1-6.8,2.1c-3.7,0-6.8-0.9-6.8-2.1h0v1.2h0c0,1.1,3.1,2.1,6.8,2.1c3.7,0,6.8-0.9,6.8-2.1h0
			L13.6,13.1L13.6,13.1z"/>
		<path d="M29.1,18.6c0,1.7-4,3.1-8.9,3.1c-4.9,0-8.8-1.4-8.9-3.1c0,0,0,1.3,0,1.3v0h0c0.1,1.7,4,3,8.9,3c4.8,0,8.7-1.4,8.9-3h0
			V18.6z"/>
		<path d="M11.4,9.2c-2.7,0-4.9-0.5-4.9-1.1v0.6h0c0.1,0.6,2.2,1.1,4.9,1.1c2.6,0,4.8-0.5,4.9-1.1h0V8.1C16.3,8.7,14.1,9.2,11.4,9.2
			z"/>
	</g>
</g>
</svg>
