<?xml version="1.0" encoding="utf-8"?>
<!-- Generator: Adobe Illustrator 18.0.0, SVG Export Plug-In . SVG Version: 6.00 Build 0)  -->
<!DOCTYPE svg PUBLIC "-//W3C//DTD SVG 1.1//EN" "http://www.w3.org/Graphics/SVG/1.1/DTD/svg11.dtd">
<svg version="1.1" xmlns="http://www.w3.org/2000/svg" xmlns:xlink="http://www.w3.org/1999/xlink" x="0px" y="0px"
	 viewBox="0 0 30 30" enable-background="new 0 0 30 30" xml:space="preserve">
<g id="Background_xA0_Image_1_">
</g>
<g id="Row_1_1_">
	<g>
		<path d="M22.8,27.5c-1.2,0.6-2.2,0.9-3.2,1.2c-0.9,0.2-2,0.3-3.1,0.3c-1.2,0-2.3-0.2-3.3-0.5c-1-0.3-1.8-0.8-2.5-1.4
			c-0.7-0.6-1.1-1.2-1.4-1.9C9.1,24.6,9,23.7,9,22.4v-9.7H6V8.8c1.1-0.4,2-0.9,2.8-1.5c0.8-0.7,1.4-1.4,1.8-2.4
			c0.5-0.9,0.8-2.1,1-3.5h3.9v7h6.5v4.3h-6.5v7.1c0,1.6,0.1,2.6,0.3,3.1c0.2,0.5,0.5,0.8,0.9,1.1c0.6,0.4,1.3,0.6,2.1,0.6
			c1.4,0,2.8-0.5,4.1-1.4V27.5z"/>
	</g>
</g>
</svg>
