<?xml version="1.0" encoding="utf-8"?>
<!-- Generator: Adobe Illustrator 18.0.0, SVG Export Plug-In . SVG Version: 6.00 Build 0)  -->
<!DOCTYPE svg PUBLIC "-//W3C//DTD SVG 1.1//EN" "http://www.w3.org/Graphics/SVG/1.1/DTD/svg11.dtd">
<svg version="1.1" xmlns="http://www.w3.org/2000/svg" xmlns:xlink="http://www.w3.org/1999/xlink" x="0px" y="0px"
	 viewBox="0 0 30 30" enable-background="new 0 0 30 30" xml:space="preserve">
<g id="Background_xA0_Image_1_">
</g>
<g id="Row_1_1_">
	<g>
		<path d="M25,2H4C2.3,2,1,3.3,1,5v21c0,1.7,1.3,3,3,3h21c1.7,0,3-1.3,3-3V5C28,3.3,26.7,2,25,2z M14.5,23.8c4.6,0,8.3-3.7,8.3-8.3
			c0-0.5-0.1-1-0.2-1.5H25v10.8c0,0.6-0.5,1-1,1H5c-0.6,0-1-0.5-1-1V14h2.3c-0.1,0.5-0.2,1-0.2,1.5C6.2,20.1,9.9,23.8,14.5,23.8z
			 M9.3,15.5c0-2.9,2.3-5.2,5.2-5.2c2.9,0,5.2,2.3,5.2,5.2s-2.3,5.2-5.2,5.2C11.6,20.7,9.3,18.3,9.3,15.5z M24,9.5h-2.4
			c-0.6,0-1-0.5-1-1V6c0-0.6,0.5-1,1-1H24c0.6,0,1,0.5,1,1v2.4C25,9,24.5,9.5,24,9.5z"/>
	</g>
</g>
</svg>
