<?xml version="1.0" encoding="utf-8"?>
<!-- Generator: Adobe Illustrator 18.0.0, SVG Export Plug-In . SVG Version: 6.00 Build 0)  -->
<!DOCTYPE svg PUBLIC "-//W3C//DTD SVG 1.1//EN" "http://www.w3.org/Graphics/SVG/1.1/DTD/svg11.dtd">
<svg version="1.1" xmlns="http://www.w3.org/2000/svg" xmlns:xlink="http://www.w3.org/1999/xlink" x="0px" y="0px"
	 viewBox="0 0 30 30" enable-background="new 0 0 30 30" xml:space="preserve">
<g id="Background_xA0_Image_1_">
</g>
<g id="Row_1_1_">
	<path fill="#FFFFFF" d="M5.2,14.4c-0.5,0.7-0.6,3-0.5,4.6c0.1,0.5,0.1,0.9,0.3,1.2c0.2,0.3,0.5,0.6,0.8,0.6c0.2,0,0.4,0,4.6-1.4
		c0,0,1.9-0.6,1.9-0.6c0.5-0.1,0.8-0.5,0.8-1.1c0-0.6-0.3-1.1-0.7-1.2c0,0-1.3-0.5-1.3-0.5c-4.5-1.9-4.7-1.9-5-1.9
		C5.7,13.9,5.4,14.1,5.2,14.4"/>
	<path fill="#FFFFFF" d="M15.3,28.4c0.1-0.2,0.1-0.4,0.1-4.8c0,0,0-2,0-2c0-0.5-0.3-0.9-0.8-1.1c-0.5-0.2-1.1-0.1-1.4,0.3
		c0,0-0.9,1.1-0.9,1.1C9.1,25.6,9,25.8,8.9,26c0,0.1-0.1,0.3,0,0.4c0,0.2,0.1,0.4,0.3,0.6c0.7,0.9,4.3,2.2,5.4,2
		C14.9,28.9,15.2,28.7,15.3,28.4"/>
	<path fill="#FFFFFF" d="M22.4,26.8c1.1-0.4,3.4-3.4,3.5-4.5c0.1-0.4-0.1-0.7-0.3-1c-0.2-0.1-0.3-0.2-4.5-1.6c0,0-1.8-0.6-1.9-0.6
		c-0.4-0.2-1,0-1.3,0.4c-0.4,0.4-0.4,1-0.1,1.4l0.7,1.2c2.5,4.1,2.7,4.3,2.9,4.5C21.7,26.9,22.1,27,22.4,26.8"/>
	<path fill="#FFFFFF" d="M20.3,16.4c4.8-1.2,5-1.2,5.2-1.3c0.3-0.2,0.4-0.5,0.4-0.9c0,0,0,0,0,0c-0.1-1.2-2.2-4.2-3.2-4.7
		c-0.4-0.2-0.7-0.2-1,0c-0.2,0.1-0.3,0.3-2.9,3.8c0,0-1.2,1.6-1.2,1.6c-0.3,0.4-0.3,0.9,0,1.4c0.3,0.5,0.8,0.7,1.3,0.6c0,0,0,0,0,0
		C19.1,16.7,19.5,16.5,20.3,16.4"/>
	<path fill="#FFFFFF" d="M15.5,12.4L15.5,12.4c-0.1-1.9-0.7-10.3-0.7-10.7C14.6,1.3,14.4,1.1,14,1c-1.2-0.3-5.9,1-6.8,1.9
		c-0.3,0.3-0.4,0.6-0.3,1C7,4.1,9,7.2,10.5,9.5l2.3,3.7c0.9,1.4,1.6,1.2,1.8,1.1C14.8,14.2,15.5,14,15.5,12.4"/>
</g>
</svg>
