<?xml version="1.0" encoding="utf-8"?>
<!-- Generator: Adobe Illustrator 18.0.0, SVG Export Plug-In . SVG Version: 6.00 Build 0)  -->
<!DOCTYPE svg PUBLIC "-//W3C//DTD SVG 1.1//EN" "http://www.w3.org/Graphics/SVG/1.1/DTD/svg11.dtd">
<svg version="1.1" xmlns="http://www.w3.org/2000/svg" xmlns:xlink="http://www.w3.org/1999/xlink" x="0px" y="0px"
	 viewBox="0 0 30 30" enable-background="new 0 0 30 30" xml:space="preserve">
<g id="Background_xA0_Image_1_">
</g>
<g id="Row_1_1_">
	<g>
		<path fill="#FFFFFF" d="M27.6,7c0,0-1.1,0-1.1,1.1s0,12.8,0,12.8s0,1.1,1.1,1.1H28v3h-9v-3h1.5V8h-0.1l-4.6,17h-4L7.1,8H7v14h1.5
			v3H1v-3h0.4c0,0,1.1,0,1.1-1.1s0-12.8,0-12.8S2.5,7,1.4,7H1V4h10l3.5,13h0.1l3.5-13H28v3H27.6z"/>
	</g>
</g>
</svg>
