<?xml version="1.0" encoding="utf-8"?>
<!-- Generator: Adobe Illustrator 18.0.0, SVG Export Plug-In . SVG Version: 6.00 Build 0)  -->
<!DOCTYPE svg PUBLIC "-//W3C//DTD SVG 1.1//EN" "http://www.w3.org/Graphics/SVG/1.1/DTD/svg11.dtd">
<svg version="1.1" xmlns="http://www.w3.org/2000/svg" xmlns:xlink="http://www.w3.org/1999/xlink" x="0px" y="0px"
	 viewBox="0 0 30 30" enable-background="new 0 0 30 30" xml:space="preserve">
<g id="Background_xA0_Image_1_">
</g>
<g id="Row_1_1_">
	<g>
		<path fill="#FFFFFF" d="M9.6,22.6c0.7-0.3,1.4-0.6,2-1c0.6-0.4,1.2-0.9,1.7-1.5c0.5-0.6,1.1-1.1,1.7-1.7c0.5,0.6,1.1,1.2,1.6,1.7
			c0.6,0.6,1.2,1,1.8,1.5c0.6,0.4,1.3,0.8,2.1,1c0.7,0.3,1.5,0.4,2.4,0.4c1.1,0,2.1-0.2,3-0.6c0.9-0.4,1.6-0.9,2.2-1.6
			c0.6-0.7,1.1-1.5,1.4-2.4c0.3-0.9,0.5-1.9,0.5-3s-0.2-2-0.5-2.9c-0.3-0.9-0.8-1.7-1.4-2.4c-0.6-0.7-1.3-1.2-2.2-1.6
			C25,8.1,24,7.9,23,7.9c-0.9,0-1.7,0.1-2.4,0.4c-0.8,0.3-1.4,0.6-2.1,1.1c-0.6,0.5-1.2,1-1.8,1.6c-0.6,0.6-1.1,1.2-1.6,1.8
			c-0.5-0.7-1.1-1.3-1.7-1.9c-0.6-0.6-1.2-1.1-1.8-1.6c-0.6-0.4-1.3-0.8-2.1-1.1C8.7,8,7.9,7.9,7,7.9c-1.1,0-2.1,0.2-2.9,0.6
			c-0.9,0.4-1.6,0.9-2.2,1.6c-0.6,0.7-1.1,1.5-1.4,2.4c-0.3,0.9-0.5,1.9-0.5,3c0,1.1,0.2,2.1,0.5,3c0.3,0.9,0.8,1.7,1.4,2.4
			c0.6,0.7,1.4,1.2,2.3,1.6C5,22.8,6,23,7.2,23C8.1,23,8.9,22.9,9.6,22.6z M4.7,17.9c-0.6-0.6-0.9-1.4-0.9-2.4
			c0-0.9,0.3-1.7,0.8-2.4C5.3,12.4,6,12,7,12c0.5,0,1,0.1,1.6,0.3c0.5,0.2,1,0.5,1.5,0.9c0.5,0.4,0.9,0.7,1.4,1.2
			c0.4,0.4,0.8,0.8,1.1,1.2c-0.3,0.4-0.7,0.8-1.1,1.2c-0.4,0.4-0.8,0.8-1.3,1.1c-0.5,0.3-1,0.6-1.5,0.8c-0.5,0.2-1,0.3-1.6,0.3
			C6.1,18.9,5.3,18.6,4.7,17.9z M21.4,18.6c-0.5-0.2-1-0.4-1.5-0.8c-0.5-0.3-0.9-0.7-1.3-1.1c-0.4-0.4-0.8-0.8-1.1-1.2
			c0.3-0.4,0.7-0.7,1.1-1.2c0.4-0.4,0.8-0.8,1.3-1.2c0.5-0.4,0.9-0.6,1.4-0.9c0.5-0.2,1-0.3,1.6-0.3c1,0,1.8,0.3,2.4,1
			c0.6,0.7,0.9,1.5,0.9,2.5c0,1-0.3,1.8-0.8,2.4c-0.5,0.7-1.3,1-2.3,1C22.4,18.9,21.9,18.8,21.4,18.6z"/>
	</g>
</g>
</svg>
