<?xml version="1.0" encoding="utf-8"?>
<!-- Generator: Adobe Illustrator 18.0.0, SVG Export Plug-In . SVG Version: 6.00 Build 0)  -->
<!DOCTYPE svg PUBLIC "-//W3C//DTD SVG 1.1//EN" "http://www.w3.org/Graphics/SVG/1.1/DTD/svg11.dtd">
<svg version="1.1" xmlns="http://www.w3.org/2000/svg" xmlns:xlink="http://www.w3.org/1999/xlink" x="0px" y="0px"
	 viewBox="0 0 30 30" enable-background="new 0 0 30 30" xml:space="preserve">
<g id="Background_xA0_Image_1_">
</g>
<g id="Row_1_1_">
	<g>
		<path fill="#FFFFFF" d="M27.6,11.3C27.6,11.3,27.6,11.2,27.6,11.3L27.6,11.3c-0.1-0.9-2.4-1.5-5.3-1.5c-2.9,0-5.2,0.6-5.3,1.4h0v0
			c0,0,0,0,0,0.1v0.8c0,0,0,0,0,0c0,0.8,2.4,1.5,5.3,1.5c2.9,0,5.3-0.7,5.3-1.5c0,0,0,0,0,0V11.3z"/>
		<path fill="#FFFFFF" d="M13.3,13.1C13.3,13.1,13.3,13.1,13.3,13.1c0-1.1-2.9-2-6.5-2c-3.6,0-6.5,0.9-6.5,2c0,0,0,0,0,0h0v1.1h0
			c0,1.1,2.9,2,6.5,2c3.6,0,6.5-0.9,6.5-2h0L13.3,13.1L13.3,13.1z"/>
		<path fill="#FFFFFF" d="M28.4,18.6C28.4,18.6,28.4,18.5,28.4,18.6c-0.1-1.7-3.7-2.9-8.2-2.9c-4.5,0-8.1,1.3-8.2,2.8h0
			c0,0,0,0.1,0,0.1v1.3h0c0.1,1.6,3.7,2.8,8.2,2.8c4.5,0,8.1-1.3,8.2-2.8h0c0,0,0-0.1,0-0.1V18.6z"/>
		<path fill="#FFFFFF" d="M16,8.1c0-0.6-2.1-1-4.6-1c-2.5,0-4.5,0.4-4.6,1h0v0.6h0c0,0.6,2.1,1,4.6,1c2.5,0,4.5-0.4,4.6-1h0L16,8.1
			L16,8.1z"/>
		<path fill="#FFFFFF" d="M27.6,12.1v-0.8c0,0.8-2.4,1.5-5.3,1.5c-2.9,0-5.2-0.6-5.3-1.5v0.8c0,0,0,0,0,0c0,0.8,2.4,1.5,5.3,1.5
			C25.2,13.6,27.6,12.9,27.6,12.1C27.6,12.1,27.6,12.1,27.6,12.1z"/>
		<path fill="#FFFFFF" d="M13.3,13.1c0,1.1-2.9,2-6.5,2c-3.6,0-6.5-0.9-6.5-2h0v1.1h0c0,1.1,2.9,2,6.5,2c3.6,0,6.5-0.9,6.5-2h0
			L13.3,13.1L13.3,13.1z"/>
		<path fill="#FFFFFF" d="M28.4,18.6c0,1.6-3.7,2.9-8.2,2.9c-4.5,0-8.2-1.3-8.2-2.8c0,0,0,1.2,0,1.2v0h0c0.1,1.6,3.7,2.8,8.2,2.8
			c4.5,0,8.1-1.3,8.2-2.8h0V18.6z"/>
		<path fill="#FFFFFF" d="M11.4,9.1c-2.5,0-4.6-0.5-4.6-1v0.6h0c0,0.6,2.1,1,4.6,1c2.5,0,4.5-0.4,4.6-1h0V8.1
			C16,8.7,13.9,9.1,11.4,9.1z"/>
	</g>
</g>
</svg>
