<?xml version="1.0" encoding="utf-8"?>
<!-- Generator: Adobe Illustrator 18.0.0, SVG Export Plug-In . SVG Version: 6.00 Build 0)  -->
<!DOCTYPE svg PUBLIC "-//W3C//DTD SVG 1.1//EN" "http://www.w3.org/Graphics/SVG/1.1/DTD/svg11.dtd">
<svg version="1.1" xmlns="http://www.w3.org/2000/svg" xmlns:xlink="http://www.w3.org/1999/xlink" x="0px" y="0px"
	 viewBox="0 0 30 30" enable-background="new 0 0 30 30" xml:space="preserve">
<g id="Background_xA0_Image_1_">
</g>
<g id="Row_1_1_">
	<g>
		<path fill="#FFFFFF" d="M14.5,10.9c-2-3.6-4.2-6.6-4.4-6.8c-3.3,1.6-5.7,4.6-6.5,8.2C4,12.4,8.9,12.4,14.5,10.9z M16,14.9
			c0.2,0,0.3-0.1,0.5-0.1c-0.3-0.7-0.6-1.3-1-2c-6.1,1.8-11.9,1.7-12.1,1.7c0,0.1,0,0.2,0,0.4c0,3,1.1,5.8,3,7.9l0,0
			C6.4,22.7,9.7,16.9,16,14.9z M8,24.1L8,24.1C7.9,24,7.8,24,7.7,23.9C7.8,24,8,24.1,8,24.1z M12.4,3.4C12.4,3.4,12.4,3.4,12.4,3.4
			C12.4,3.4,12.4,3.4,12.4,3.4L12.4,3.4z M23,6C20.9,4.1,18.2,3,15.2,3c-1,0-1.9,0.1-2.8,0.3c0.2,0.2,2.4,3.2,4.4,6.9
			C21.3,8.6,23,6,23,6z M15.2,28.6c-7.6,0-13.8-6.2-13.8-13.8C1.4,7.2,7.6,1,15.2,1C22.8,1,29,7.2,29,14.8
			C29,22.4,22.8,28.6,15.2,28.6z M17.2,16.7C10.3,19.1,8,24,8,24.1c2,1.6,4.5,2.5,7.2,2.5c1.6,0,3.2-0.3,4.6-0.9
			C19.6,24.6,18.9,21,17.2,16.7C17.3,16.7,17.2,16.7,17.2,16.7z M17.7,12c0.3,0.6,0.5,1.1,0.8,1.7c0.1,0.2,0.2,0.4,0.3,0.6
			c4.1-0.5,8.1,0.4,8.2,0.4c0-2.8-1-5.4-2.7-7.4C24.3,7.3,22.4,10.1,17.7,12z M19.5,16.2c1.5,4.3,2.2,7.7,2.3,8.4
			c2.6-1.8,4.5-4.6,5.1-7.9C26.6,16.6,23.3,15.5,19.5,16.2z"/>
	</g>
</g>
</svg>
